<svg xmlns="http://www.w3.org/2000/svg" xmlns:xlink="http://www.w3.org/1999/xlink" width="65" zoomAndPan="magnify" viewBox="0 0 48.75 48.75" height="65" preserveAspectRatio="xMidYMid meet" version="1.0"><defs><clipPath id="70b57811fc"><path d="M 0 0 L 48.304688 0 L 48.304688 48.304688 L 0 48.304688 Z M 0 0 " clip-rule="nonzero"/></clipPath><clipPath id="55cecf7a7f"><path d="M 24.152344 0 C 10.8125 0 0 10.8125 0 24.152344 C 0 37.488281 10.8125 48.304688 24.152344 48.304688 C 37.488281 48.304688 48.304688 37.488281 48.304688 24.152344 C 48.304688 10.8125 37.488281 0 24.152344 0 Z M 24.152344 0 " clip-rule="nonzero"/></clipPath><clipPath id="96324216a4"><path d="M 14.542969 11.339844 L 33.945312 11.339844 L 33.945312 36.710938 L 14.542969 36.710938 Z M 14.542969 11.339844 " clip-rule="nonzero"/></clipPath></defs><g clip-path="url(#70b57811fc)"><g clip-path="url(#55cecf7a7f)"><path stroke-linecap="butt" transform="matrix(0.746173, 0, 0, 0.746173, 0.000000000000005302, 0.0000021898)" fill="none" stroke-linejoin="miter" d="M 32.368271 -0.0000029347 C 14.490599 -0.0000029347 -0.000000000000007105 14.490596 -0.000000000000007105 32.368268 C -0.000000000000007105 50.240704 14.490599 64.736538 32.368271 64.736538 C 50.240707 64.736538 64.736541 50.240704 64.736541 32.368268 C 64.736541 14.490596 50.240707 -0.0000029347 32.368271 -0.0000029347 Z M 32.368271 -0.0000029347 " stroke="#000000" stroke-width="4" stroke-opacity="1" stroke-miterlimit="4"/></g></g><g clip-path="url(#96324216a4)"><path fill="#000000" d="M 24.246094 11.34375 C 18.894531 11.34375 14.542969 15.609375 14.542969 20.855469 C 14.542969 27.449219 23.300781 36.109375 23.671875 36.476562 C 23.832031 36.628906 24.039062 36.707031 24.246094 36.707031 C 24.453125 36.707031 24.660156 36.628906 24.816406 36.476562 C 25.1875 36.109375 33.945312 27.449219 33.945312 20.855469 C 33.945312 15.609375 29.59375 11.34375 24.246094 11.34375 Z M 24.246094 25.609375 C 21.570312 25.609375 19.394531 23.476562 19.394531 20.855469 C 19.394531 18.234375 21.570312 16.101562 24.246094 16.101562 C 26.917969 16.101562 29.09375 18.234375 29.09375 20.855469 C 29.09375 23.476562 26.917969 25.609375 24.246094 25.609375 Z M 24.246094 25.609375 " fill-opacity="1" fill-rule="nonzero"/></g></svg>