<svg xmlns="http://www.w3.org/2000/svg" xmlns:xlink="http://www.w3.org/1999/xlink" width="65" zoomAndPan="magnify" viewBox="0 0 48.75 48.75" height="65" preserveAspectRatio="xMidYMid meet" version="1.0"><defs><clipPath id="e7055ac5d2"><path d="M 0 0 L 48.304688 0 L 48.304688 48.304688 L 0 48.304688 Z M 0 0 " clip-rule="nonzero"/></clipPath><clipPath id="b514b924bb"><path d="M 24.152344 0 C 10.8125 0 0 10.8125 0 24.152344 C 0 37.488281 10.8125 48.304688 24.152344 48.304688 C 37.488281 48.304688 48.304688 37.488281 48.304688 24.152344 C 48.304688 10.8125 37.488281 0 24.152344 0 Z M 24.152344 0 " clip-rule="nonzero"/></clipPath><clipPath id="c3f0f9ec8d"><path d="M 13 25 L 36 25 L 36 31.992188 L 13 31.992188 Z M 13 25 " clip-rule="nonzero"/></clipPath><clipPath id="31398e6c35"><path d="M 11.9375 17 L 21 17 L 21 31 L 11.9375 31 Z M 11.9375 17 " clip-rule="nonzero"/></clipPath><clipPath id="18f79c008c"><path d="M 13 16.320312 L 36 16.320312 L 36 26 L 13 26 Z M 13 16.320312 " clip-rule="nonzero"/></clipPath><clipPath id="de15e036db"><path d="M 28 17 L 36.5625 17 L 36.5625 31 L 28 31 Z M 28 17 " clip-rule="nonzero"/></clipPath></defs><g clip-path="url(#e7055ac5d2)"><g clip-path="url(#b514b924bb)"><path stroke-linecap="butt" transform="matrix(0.746173, 0, 0, 0.746173, 0.000000000000005302, 0.0000021898)" fill="none" stroke-linejoin="miter" d="M 32.368271 -0.0000029347 C 14.490599 -0.0000029347 -0.000000000000007105 14.490596 -0.000000000000007105 32.368268 C -0.000000000000007105 50.240704 14.490599 64.736538 32.368271 64.736538 C 50.240707 64.736538 64.736541 50.240704 64.736541 32.368268 C 64.736541 14.490596 50.240707 -0.0000029347 32.368271 -0.0000029347 Z M 32.368271 -0.0000029347 " stroke="#000000" stroke-width="4" stroke-opacity="1" stroke-miterlimit="4"/></g></g><g clip-path="url(#c3f0f9ec8d)"><path fill="#000000" d="M 35.015625 31.703125 L 27.347656 25.335938 C 27.125 25.152344 26.800781 25.152344 26.578125 25.335938 L 24.511719 27.050781 C 24.304688 27.226562 24.003906 27.226562 23.792969 27.050781 L 21.730469 25.335938 C 21.503906 25.152344 21.179688 25.152344 20.957031 25.335938 L 13.289062 31.703125 C 13.183594 31.789062 13.246094 31.960938 13.382812 31.960938 L 34.921875 31.960938 C 35.058594 31.960938 35.121094 31.789062 35.015625 31.703125 " fill-opacity="1" fill-rule="nonzero"/></g><g clip-path="url(#31398e6c35)"><path fill="#000000" d="M 20 23.902344 L 12.179688 17.410156 C 12.085938 17.328125 11.941406 17.398438 11.941406 17.523438 L 11.941406 30.789062 C 11.941406 30.910156 12.085938 30.980469 12.179688 30.902344 L 20 24.410156 C 20.15625 24.277344 20.15625 24.03125 20 23.902344 " fill-opacity="1" fill-rule="nonzero"/></g><g clip-path="url(#18f79c008c)"><path fill="#000000" d="M 13.289062 16.605469 L 23.859375 25.382812 C 24.03125 25.523438 24.277344 25.523438 24.445312 25.382812 L 35.015625 16.605469 C 35.121094 16.519531 35.058594 16.347656 34.921875 16.347656 L 13.382812 16.347656 C 13.246094 16.347656 13.183594 16.519531 13.289062 16.605469 " fill-opacity="1" fill-rule="nonzero"/></g><g clip-path="url(#de15e036db)"><path fill="#000000" d="M 36.125 17.410156 L 28.308594 23.902344 C 28.148438 24.03125 28.148438 24.277344 28.308594 24.410156 L 36.125 30.902344 C 36.21875 30.980469 36.363281 30.910156 36.363281 30.789062 L 36.363281 17.523438 C 36.363281 17.398438 36.21875 17.328125 36.125 17.410156 " fill-opacity="1" fill-rule="nonzero"/></g></svg>