<svg xmlns="http://www.w3.org/2000/svg" xmlns:xlink="http://www.w3.org/1999/xlink" width="65" zoomAndPan="magnify" viewBox="0 0 48.75 48.75" height="65" preserveAspectRatio="xMidYMid meet" version="1.0"><defs><clipPath id="2184ea9a01"><path d="M 0 0 L 48.304688 0 L 48.304688 48.304688 L 0 48.304688 Z M 0 0 " clip-rule="nonzero"/></clipPath><clipPath id="40b5a35eed"><path d="M 24.152344 0 C 10.8125 0 0 10.8125 0 24.152344 C 0 37.488281 10.8125 48.304688 24.152344 48.304688 C 37.488281 48.304688 48.304688 37.488281 48.304688 24.152344 C 48.304688 10.8125 37.488281 0 24.152344 0 Z M 24.152344 0 " clip-rule="nonzero"/></clipPath><clipPath id="6c421b28f3"><path d="M 13.738281 13.738281 L 34.628906 13.738281 L 34.628906 34.628906 L 13.738281 34.628906 Z M 13.738281 13.738281 " clip-rule="nonzero"/></clipPath></defs><g clip-path="url(#2184ea9a01)"><g clip-path="url(#40b5a35eed)"><path stroke-linecap="butt" transform="matrix(0.746173, 0, 0, 0.746173, 0.000000000000005302, 0.0000021898)" fill="none" stroke-linejoin="miter" d="M 32.368271 -0.0000029347 C 14.490599 -0.0000029347 -0.000000000000007105 14.490596 -0.000000000000007105 32.368268 C -0.000000000000007105 50.240704 14.490599 64.736538 32.368271 64.736538 C 50.240707 64.736538 64.736541 50.240704 64.736541 32.368268 C 64.736541 14.490596 50.240707 -0.0000029347 32.368271 -0.0000029347 Z M 32.368271 -0.0000029347 " stroke="#000000" stroke-width="4" stroke-opacity="1" stroke-miterlimit="4"/></g></g><g clip-path="url(#6c421b28f3)"><path fill="#000000" d="M 34.371094 29.074219 C 34.523438 29.480469 34.613281 29.917969 34.625 30.378906 C 34.628906 30.421875 34.628906 30.464844 34.628906 30.511719 C 34.628906 32.785156 32.785156 34.628906 30.511719 34.628906 C 21.246094 34.628906 13.738281 27.121094 13.738281 17.855469 C 13.738281 15.582031 15.582031 13.738281 17.855469 13.738281 C 17.902344 13.738281 17.945312 13.738281 17.988281 13.738281 C 18.445312 13.753906 18.886719 13.84375 19.292969 13.996094 L 20.839844 20.691406 C 20.839844 20.695312 20.839844 20.695312 20.835938 20.699219 L 18 21.972656 L 17.992188 21.976562 C 19.292969 25.9375 22.425781 29.074219 26.390625 30.375 L 26.394531 30.367188 L 27.671875 27.53125 L 34.371094 29.074219 " fill-opacity="1" fill-rule="nonzero"/></g></svg>