<?xml version="1.0" encoding="UTF-8"?><svg id="uuid-cdaa30dd-9295-4c91-84ad-a61ab198bbf1" xmlns="http://www.w3.org/2000/svg" viewBox="0 0 100 24.5"><path d="M1.54,5.35l.82.22-.37.59s.6.89,1.15,1.41c.41.38,1.05.4,1.35.39.1-.03.18-.02.18-.02,0,0-.07.01-.18.02-.2.06-.52.32-.57,1.29-.07,1.45.37,3.01,1.15,2.34.62-.53,1.7-2.78,2.11-3.66,0,.05,0,.11,0,.16l.14,1.33s-.19.97-.37,2.55c-.18,1.58-.23,1.63.36,3.43l.59,1.81-.18.63.18.5s.59,2.21.63,3.3c0,.2.01.42.01.65h.57c.29-1.06.57-2.22.55-2.73-.05-1.04-.14-3.88-.14-3.88,0,0,.09-1.72.45-2.48.36-.77.95-1.85.5-2.57-.45-.72-.45-.77-.45-.77l-.36-.9c.09-.3.54-.93,1.03-1.56v.12s.23.56.23.56c0,0,.04.04.41.74.37.71.04.19.04.19,0,0,1.49,3.35,2.27,4.02.78.67,1.23-.89,1.15-2.34-.05-.97-.36-1.22-.57-1.29-.11,0-.18-.02-.18-.02,0,0,.07-.02.18.02.3.02.94,0,1.35-.39.56-.52,1.15-1.41,1.15-1.41l-.37-.6.82-.22s.6-.45,1.15-1.26c2.06-3.02-4.67-.33-5.4.04-.39.2-.8.37-1.16.5.2-.24.33-.39.33-.39,0,0,1.63-.41,2.26-.72.63-.32.9-.53.9-.53l1.58-.65c.73-.3,1.27-.89,1.39-.99h0c.09-.09.24-.22.33-.29.14-.12.31-.09.53-.12.22-.02.64-.13.81-.16.18-.03.82-.03.82-.03l-.24-.11-.13-.02c-.13-.02-.73-.02-.73-.02,0,0,.24-.08.36-.18.12-.11.34-.22.34-.22l-.06-.03h-.11s-.69.24-.69.24l-.63-.04.09-.08c.09-.08.13-.33.13-.33,0,0-.16.13-.3.19-.14.05-.28.07-.43.11l-.27.42-.18.15h0s-.03.03-.04.05l-.09.08h0c-.48.37-1.75.62-2.03.69-.71.18-1.31.77-1.31.77-.63.25-1.32.32-1.85.5-.41.14-1.22,0-1.22,0l-.13-.3h.06c.46.07.94-.18,1.11-.28-.11.06-.35.16-.52.03-.24-.19.05-.8.05-.8,0,0-.11.1.04-.1.15-.19.2-.23.2-.23.55-1.16,1.28-1.98-.91-2.47,0,0-1.07-.45-1.39,0-.32.46-.63,1.15-.63,1.15l.58-.84c.17-.24.32-.18.45-.16.13.03.07.02.11.04-.27.1-.45.25-.45.25,0,0-.15.21-.28.53-.13.32-.34.37-.44.4-.1.03-.07.16-.02.21.05.05-.04.21-.04.21l.05.16-.12.11s.06.14.05.15c-.31.39-.05.64.29.64.43,0,.44.04.44.04,0,0,.07-.01.11.3.05.31.03.64-.44.61-.32-.02-.89-.37-1.14-.37s-1.03-.09-1.3-.21c-.27-.11-.59-.48-.59-.48,0,0-1.1-.62-1.78-1.01-.26-.15-.53-.35-.76-.54l-.03.03-.29-.25-.27-.42c-.15-.04-.29-.06-.43-.11-.14-.05-.3-.19-.3-.19,0,0,.04.25.13.33l.09.08-.63.04-.69-.25h-.11s-.06.03-.06.03c0,0,.22.11.34.22.12.11.36.18.36.18,0,0-.6,0-.73.02l-.14.02-.23.11s.65,0,.82.02c.18.03.6.13.81.16.22.03.39,0,.53.12.14.12.41.35.41.35h0c.47.45,1.15,1.13,1.5,1.42.44.37,2.16,1.29,2.69,1.58-.44-.14-1.21-.41-1.95-.78-.73-.36-7.45-3.06-5.4-.04.56.82,1.15,1.27,1.15,1.27" style="fill:#fff; fill-rule:evenodd; stroke-width:0px;"/><path d="M38.34,4.77h.14c.22,0,.39.06.49.17.07.08.16.33.16,1.1v7.23c-.88,1.01-1.9,1.52-3.04,1.52-.72,0-1.37-.26-1.94-.78-.56-.51-.85-1.39-.85-2.6v-5.87c0-.34.06-.55.17-.64.12-.09.32-.13.61-.13h.04v-.19h-2.92v.19h.04c.41,0,.56.08.62.14.06.07.13.24.13.71v6.41c0,1.06.32,1.9.94,2.5.63.6,1.49.9,2.55.9,1.4,0,2.63-.56,3.65-1.66v1.59h2.1v-.18h-.04c-.24,0-.41-.03-.51-.1-.1-.07-.16-.15-.19-.24-.02-.07-.05-.25-.05-.66V5.45c0-.26.04-.44.12-.53.08-.09.29-.14.63-.16h.04v-.18h-2.89v.19Z" style="fill:#fff; stroke-width:0px;"/><path d="M90.25,12.28c0-.7-.19-1.29-.57-1.74-.37-.45-.77-.77-1.18-.96-.42-.19-1.18-.47-2.26-.83-.63-.25-1.04-.52-1.24-.8-.2-.29-.29-.62-.29-1,0-.58.21-1.07.63-1.48.42-.41.99-.62,1.71-.62.43,0,.81.08,1.15.22.34.15.64.36.91.64.27.28.37.38.39.41v.03l.18-.03-.53-1.41h-.03s-.03,0-.04-.01c-.04-.02-.15-.05-.71-.16-.43-.08-.81-.12-1.17-.12-.93,0-1.7.29-2.27.85-.58.57-.87,1.28-.87,2.11,0,.45.11.91.34,1.35.23.44.51.77.85.99.34.22.92.47,1.73.76.83.29,1.38.52,1.67.71.29.19.52.42.68.67.16.25.24.56.24.92,0,.6-.23,1.1-.69,1.52-.46.42-1.15.63-2.05.63-.99,0-1.72-.2-2.19-.6-.46-.4-.7-1.11-.71-2.12v-.04h-.18v3.19h2.9c.15,0,.45-.03.93-.08.47-.06.82-.14,1.04-.24.22-.1.43-.26.65-.47.21-.2.4-.43.55-.68.15-.25.27-.51.33-.78.07-.27.1-.55.1-.85" style="fill:#fff; stroke-width:0px;"/><path d="M53.42,14.53c-.46.27-.86.41-1.21.41s-.73-.11-1.11-.32c-.38-.21-.93-.81-1.63-1.78-.7-.97-1.14-1.61-1.31-1.91l-.73-1.13c.58-.34,1.04-.75,1.36-1.24.33-.49.5-1.02.5-1.57,0-.48-.09-.89-.28-1.22-.19-.33-.47-.6-.83-.79-.37-.19-.73-.31-1.07-.34-.34-.03-.91-.05-1.67-.05h-3.07v.18h.04c.34,0,.55.09.61.26.07.18.11.4.11.67v8.51c0,.39-.04.65-.12.78-.07.12-.28.19-.6.2h-.04v.18h2.84v-.18h-.04c-.32,0-.52-.07-.6-.19-.08-.14-.12-.37-.12-.69v-4.05h.83l.93-.03,1.06,1.63s.01.03.02.04c1.1,1.64,1.89,2.66,2.33,3.03.45.37,1,.56,1.62.56.93,0,1.7-.24,2.29-.73l.02-.02-.07-.22-.04.03ZM44.43,4.96h.84c1.04,0,1.77.29,2.18.86.41.58.62,1.2.62,1.84s-.21,1.2-.63,1.61c-.42.4-1.07.61-1.93.61h-1.08v-4.92Z" style="fill:#fff; stroke-width:0px;"/><path d="M30.51,4.25c-.05.15-.13.25-.25.28-.12.03-.32.05-.59.05h-7.11c-.34,0-.48-.03-.53-.05-.05-.02-.13-.09-.24-.29v-.02h-.2l.53,1.33v.03h.2l-.02-.05c-.05-.15-.06-.24-.06-.28,0-.16.07-.19.1-.2.08-.03.25-.04.52-.04h2.64v9.28c0,.36-.04.59-.13.7-.08.11-.3.17-.65.2h-.04v.18h2.98v-.18h-.04c-.23,0-.4-.02-.5-.05-.09-.03-.17-.11-.23-.24-.06-.13-.09-.39-.09-.76V5.01h2.76c.17,0,.29.01.37.04.04.02.1.05.1.18s-.01.23-.03.31v.05s.17,0,.17,0l.54-1.36h-.19v.03Z" style="fill:#fff; stroke-width:0px;"/><path d="M99.96,15.18c-.39,0-.67-.19-.86-.59-.27-.56-.29-.65-.29-.67l-3.8-9.47v-.02h-.26l-3.9,9.82c-.17.43-.33.69-.46.79-.14.1-.31.15-.52.15h-.04v.18h1.67v-.18h-.04c-.29,0-.32-.11-.32-.2,0-.04.03-.17.17-.52l1.59-4.02h3.1l1.52,3.78v.03h.01s0,.02.01.04c.01.04.03.08.05.1.11.26.16.45.16.56,0,.1-.03.23-.3.23h-.04v.18h2.58v-.18h-.04ZM95.84,10.06h-2.78l1.39-3.5,1.39,3.5Z" style="fill:#fff; stroke-width:0px;"/><path d="M71.14,4.77h.14c.22,0,.39.06.49.17.07.08.15.33.15,1.1v7.23c-.88,1.01-1.9,1.52-3.04,1.52-.72,0-1.37-.26-1.94-.78-.56-.51-.85-1.39-.85-2.6v-5.87c0-.34.06-.55.17-.64.12-.09.32-.13.61-.13h.04v-.19h-2.92v.19h.04c.41,0,.56.08.62.14.06.07.13.24.13.71v6.41c0,1.06.32,1.9.94,2.5.63.6,1.49.9,2.55.9,1.4,0,2.63-.56,3.65-1.66v1.59h2.11v-.18h-.04c-.24,0-.41-.03-.51-.1-.1-.07-.16-.15-.19-.24-.02-.07-.05-.25-.05-.66V5.45c0-.26.04-.44.12-.53.08-.09.29-.14.63-.16h.04v-.18h-2.89v.19Z" style="fill:#fff; stroke-width:0px;"/><path d="M82.36,13.84c-.06.4-.15.67-.26.79-.11.12-.25.2-.4.24-.16.04-.54.06-1.15.06h-1.89c-.4,0-.71-.03-.9-.08-.19-.05-.33-.18-.42-.39-.09-.21-.14-.57-.14-1.06v-3.26h3.33c.24,0,.4.02.48.07.08.04.13.13.15.26v.03h.18v-1.09h-.18v.04c0,.1-.05.18-.12.23-.08.06-.28.08-.6.08h-3.25v-4.73h3.5c.47,0,.64.07.71.14.09.09.21.41.36.95v.03h.18v-1.55h-6.82v.18h.04c.35,0,.56.07.62.22.07.15.1.43.1.81v8.66c0,.32-.06.52-.17.59-.12.08-.31.12-.55.14h-.04v.18h7.42v-1.55h-.18v.03Z" style="fill:#fff; stroke-width:0px;"/><path d="M65.72,18.08c-.37.05-.64.07-.83.07-.51,0-1.03-.07-1.55-.22-.52-.15-1.05-.37-1.57-.64-.52-.27-1.07-.61-1.71-1.06l-1.13-.8c-.08-.05-.13-.08-.16-.1,1.42-.36,2.51-1.12,3.25-2.26.75-1.15,1.14-2.44,1.14-3.81s-.48-2.54-1.44-3.46c-.96-.92-2.21-1.39-3.72-1.39-1.26,0-2.36.31-3.27.93-.91.61-1.61,1.4-2.07,2.35-.46.94-.7,1.92-.7,2.89,0,1.27.46,2.43,1.35,3.45.89,1.01,2.16,1.53,3.76,1.53,1.1.99,2.3,1.78,3.55,2.35,1.25.57,2.28.86,3.06.86.22,0,.54-.05.96-.14.42-.1.79-.22,1.1-.37h.03s-.02-.17-.02-.17h-.04ZM61.82,12.69c-.4.68-.97,1.23-1.68,1.62-.71.39-1.44.59-2.16.59-1.3,0-2.49-.58-3.53-1.73-1.04-1.15-1.57-2.48-1.57-3.98,0-1.17.43-2.17,1.29-2.95.85-.79,1.82-1.19,2.86-1.19.71,0,1.51.23,2.38.69.87.46,1.6,1.12,2.17,1.97.57.85.85,1.81.85,2.86,0,.72-.21,1.43-.61,2.12" style="fill:#fff; stroke-width:0px;"/><text transform="translate(30.72 22.51)" style="fill:#fff; font-weight:300;"><tspan x="0" y="0" style="font-family:&apos;HvDTrial_BrandonGrotesque-Light&apos;, &apos;HvDTrial Brandon Grotesque&apos;; font-size:5.55px;">b e l e z a</tspan><tspan x="19.4" y="0" xml:space="preserve" style="font-family:&apos;HvDTrial_BrandonGrotesque-Light&apos;, &apos;HvDTrial Brandon Grotesque&apos;; font-size:5.76px; letter-spacing:0em;">  </tspan><tspan x="21.9" y="0" style="font-family:BrandonGrotesque-Light, &apos;BrandonGrotesque Light&apos;; font-size:4.27px;">&amp;</tspan><tspan x="24.48" y="0" xml:space="preserve" style="font-family:&apos;HvDTrial_BrandonGrotesque-Light&apos;, &apos;HvDTrial Brandon Grotesque&apos;; font-size:5.76px;">  </tspan><tspan x="26.98" y="0" style="font-family:&apos;HvDTrial_BrandonGrotesque-Light&apos;, &apos;HvDTrial Brandon Grotesque&apos;; font-size:5.55px;">b e m - e s t a r</tspan></text></svg>